# xmcd
#
# Track frame offsets: 
#        150
#        10360
#        22172
#        42152
#        57105
#        74030
#        86135
#        97850
#        114985
#        128727
#        140332
#        154760
#
# Disc length: 2247 seconds
#
# Revision: 0
# Processed by: cddbd v1.5.1PL2 Copyright (c) Steve Scherf et al.
# Submitted via: ExactAudioCopy v0.95b4
#
DISCID=9e08c50c
DTITLE=Larry Stephenson - Life Stories
DYEAR=2006
DGENRE=Bluegrass
TTITLE0=Old Kentucky Hills
TTITLE1=Poor Old Cora
TTITLE2=The Knoxville Boy
TTITLE3=Why Don't You Tell Me So
TTITLE4=Veil of White Lace
TTITLE5=Monrovia
TTITLE6=Deep Water
TTITLE7=Behind Those Big Closed Doors
TTITLE8=I've Lived A Lot In My Time
TTITLE9=Iron Mountain Line
TTITLE10=Baby Shoes
TTITLE11=Waiting For The Sun To Shine
EXTD=
EXTT0=
EXTT1=
EXTT2=
EXTT3=
EXTT4=
EXTT5=
EXTT6=
EXTT7=
EXTT8=
EXTT9=
EXTT10=
EXTT11=
PLAYORDER=
